<svg version="1.1" id="Layer_1" xmlns="http://www.w3.org/2000/svg" xmlns:xlink="http://www.w3.org/1999/xlink" x="0px" y="0px"
	 width="100%" viewBox="0 0 1024 1024" enable-background="new 0 0 1024 1024" xml:space="preserve">
<path fill="#000000" opacity="1.000000" stroke="none" 
	d="
M272.705872,489.318298 
	C265.192505,488.927948 259.525116,484.909790 253.833160,481.588165 
	C253.207123,482.072113 252.733673,482.265564 252.731354,482.464508 
	C252.563904,496.753510 251.598892,511.232452 261.614014,523.297180 
	C265.469177,527.941284 270.295319,531.001465 276.313507,532.053467 
	C281.889954,533.028259 287.466980,534.002136 293.031677,535.041016 
	C298.182220,536.002686 302.892426,535.891724 307.970734,533.434875 
	C316.500610,529.308228 327.769501,532.743347 335.061340,540.911804 
	C337.078125,543.171082 339.260956,544.252319 342.118988,545.065613 
	C349.591980,547.192017 357.182495,549.082214 364.516418,552.454651 
	C363.379456,556.113525 360.460693,558.351440 359.428680,561.752075 
	C358.200745,565.798401 358.452026,569.143066 361.094543,572.503174 
	C363.337738,575.355469 366.281677,578.643250 364.078979,582.351807 
	C362.058685,585.753174 357.918671,584.296997 354.822571,583.829041 
	C336.074615,580.995544 317.180023,578.975098 298.929840,573.349670 
	C289.835297,570.546265 281.589233,566.506409 274.804382,559.783447 
	C267.558929,552.604065 259.244690,546.739197 251.323654,540.386292 
	C239.880264,531.208313 234.120087,518.903809 232.754440,504.594238 
	C230.771637,483.817993 233.665756,463.012268 232.887604,442.203827 
	C232.700806,437.208557 234.656067,432.409546 236.920242,427.888947 
	C244.847229,412.062164 256.469116,400.275787 273.460632,394.295929 
	C278.503571,392.521149 282.962769,389.819092 287.409271,386.736847 
	C293.040100,382.833679 300.345398,382.855957 306.862152,380.953583 
	C319.281464,377.328217 332.380432,375.957275 344.106201,370.049744 
	C354.623688,364.750916 363.576965,357.791046 366.644684,345.607971 
	C368.764069,337.191040 374.904144,330.949432 378.436523,323.285522 
	C379.745667,320.445251 382.725403,318.346710 385.981171,317.968140 
	C391.485931,317.328064 396.286011,314.315033 401.843353,313.823059 
	C404.810150,313.560394 407.524963,311.956207 409.346130,309.342651 
	C410.103271,308.256042 411.001312,307.108704 410.300079,305.684723 
	C409.588226,304.239197 408.193970,304.172363 406.831238,304.384583 
	C404.663666,304.722137 402.478973,305.283966 401.077911,302.834412 
	C399.640930,300.321960 400.321320,298.025909 401.793274,295.811981 
	C402.808105,294.285614 403.821411,292.758118 404.848602,291.240082 
	C409.555603,284.284180 409.170227,280.841400 403.086273,275.311188 
	C396.749359,269.551086 397.066803,261.712006 397.402008,254.357193 
	C398.007080,241.081573 404.869781,230.475601 413.632690,220.972229 
	C414.422821,220.115295 415.437073,219.423340 416.071381,218.471024 
	C421.258331,210.683685 427.769318,205.552200 437.851227,206.440186 
	C440.522736,206.675491 443.290192,205.307846 444.493622,202.672287 
	C448.130554,194.707489 452.974884,187.255478 453.663940,178.084778 
	C455.501160,153.634094 481.005829,133.672333 505.322144,137.070053 
	C513.431946,138.203232 521.268799,140.670685 529.322327,141.700851 
	C542.294128,143.360138 555.164246,141.054047 568.071350,139.611038 
	C581.772095,138.079300 595.564880,136.933090 608.558594,143.907013 
	C617.237976,148.565369 626.888550,148.543625 636.421387,147.945312 
	C642.484497,147.564789 647.975769,148.355881 652.747375,152.470139 
	C654.103149,153.639160 655.835083,154.509537 657.537598,155.113190 
	C662.814758,156.984314 665.257996,160.605347 664.955627,166.168060 
	C664.751892,169.915054 666.611938,172.644028 668.885559,175.524170 
	C680.520691,190.263443 694.421509,203.167175 703.804626,219.759430 
	C708.850525,228.682114 712.316528,237.728577 712.238159,248.067780 
	C712.089111,267.730225 712.211365,287.395477 711.942017,307.055725 
	C711.869019,312.382660 713.614014,316.208862 718.442017,318.299713 
	C726.760559,321.902222 734.222656,326.859344 741.463684,332.221619 
	C748.178711,337.194275 756.394043,336.529449 764.006409,337.773346 
	C775.339661,339.625244 785.876770,343.354828 795.989746,348.638702 
	C807.555908,354.681946 812.795349,364.838196 813.101135,377.162659 
	C813.497437,393.130524 813.795776,409.137238 812.440613,425.118622 
	C811.822510,432.408142 812.465393,439.738007 812.979248,447.067474 
	C814.614075,470.385620 805.072144,489.829041 791.116638,507.594360 
	C787.827942,511.780853 784.304626,515.768677 782.252808,520.818542 
	C781.313171,523.131287 779.453552,525.293335 781.633301,527.675720 
	C783.870667,530.121155 786.490784,531.360046 790.110168,530.420166 
	C800.934570,527.609253 811.428589,523.812866 821.937866,520.071289 
	C830.224792,517.120972 839.158813,515.970947 846.784119,511.158936 
	C848.002380,510.390167 849.383972,510.442810 850.515564,511.419037 
	C851.930786,512.639954 851.500122,514.115723 850.826843,515.528381 
	C850.185730,516.873657 849.473389,518.185059 848.868469,519.363037 
	C847.674622,520.049438 847.205750,519.248840 846.653259,518.659790 
	C845.382507,517.304810 843.961304,517.193848 842.797363,518.612549 
	C841.655579,520.004333 842.045044,521.920471 843.345398,522.619995 
	C854.226074,528.472839 851.926331,538.821594 852.036682,548.161743 
	C852.298340,570.323120 852.101562,592.490051 852.370667,614.651306 
	C852.513977,626.455078 850.527100,637.598511 846.506653,648.817993 
	C841.544495,662.665588 835.149597,675.355286 825.701904,686.634033 
	C816.914795,697.124146 806.264160,704.721130 793.395752,709.303284 
	C790.470032,710.345032 787.885254,710.521240 785.764893,707.780029 
	C784.908569,706.672852 783.665405,706.165039 782.304993,705.968506 
	C776.365234,705.110718 770.361389,705.145081 764.436951,705.605957 
	C759.683289,705.975830 759.162903,707.748047 761.120544,713.468079 
	C759.380066,715.816284 756.950745,715.063293 754.810425,714.494080 
	C750.631165,713.382874 746.485657,712.095398 742.421265,710.619202 
	C739.828979,709.677734 737.685364,709.754028 736.638733,712.494812 
	C732.868103,722.368835 724.631653,726.150391 715.278442,728.510376 
	C711.555298,729.449768 708.102478,731.065735 704.562012,732.525574 
	C695.293823,736.346985 686.080872,735.128906 676.863403,731.638428 
	C669.330750,728.785950 663.072388,723.588440 655.567078,720.732178 
	C653.073181,719.783142 651.018738,719.775757 648.457153,720.789734 
	C638.571411,724.702698 628.703308,728.592834 617.973450,729.978516 
	C609.823975,731.030945 602.073364,730.989868 594.621338,727.157532 
	C593.317078,726.486694 591.859680,726.113647 590.201294,725.503113 
	C588.020996,728.771545 587.964966,732.539368 587.037598,735.977844 
	C586.079590,739.529968 584.293579,741.750916 580.596741,742.752014 
	C568.707031,745.971680 556.978516,749.865173 544.976440,752.555542 
	C539.684814,753.741699 533.349854,755.598450 528.655945,749.379272 
	C523.174011,754.432861 517.754517,759.589966 510.674011,761.764038 
	C505.048218,763.491333 498.458221,762.288147 493.411621,765.653748 
	C485.031830,771.242126 475.635468,772.339417 466.569611,770.633240 
	C457.575165,768.940491 448.808228,771.256653 440.033905,769.847900 
	C437.971039,769.516724 437.390656,770.765015 436.845032,772.209900 
	C431.152924,787.283569 419.490662,795.057434 404.585419,799.363464 
	C395.443176,802.004578 386.600220,804.961731 378.671570,797.495728 
	C376.127777,799.240906 376.112976,801.365723 376.149353,803.283264 
	C376.244598,808.306396 373.772217,810.781128 369.016846,811.937256 
	C359.483826,814.254883 350.019684,816.860657 340.549866,819.431458 
	C336.064911,820.649109 331.579437,821.759583 327.380402,823.995728 
	C321.518707,827.117249 320.135681,826.164062 319.766937,819.618713 
	C319.501038,814.897766 319.206848,813.704834 317.290314,809.878113 
	C314.688751,811.849548 315.325348,814.666687 315.250214,817.128967 
	C314.784241,832.398376 315.175293,830.010803 302.858704,833.145447 
	C282.984741,838.203430 264.153290,846.464478 244.326447,851.590332 
	C239.045258,852.955750 233.781082,854.547729 228.175583,852.983215 
	C224.650055,851.999207 225.350830,857.347229 222.099915,857.264221 
	C220.151245,856.128601 220.983780,854.084167 220.948990,852.410645 
	C220.720413,841.415283 221.438599,830.433472 221.589767,819.448914 
	C221.779861,805.635498 220.651413,791.792053 221.124222,777.997009 
	C221.848999,756.849243 221.214325,735.704956 221.741714,714.565796 
	C221.891235,708.572021 221.847351,702.603516 220.429626,696.693237 
	C218.915009,690.378967 220.935425,684.466492 223.226166,678.715881 
	C226.544418,670.385803 231.262177,662.933472 238.562515,657.531067 
	C249.055496,649.765930 264.017975,649.739929 274.583313,657.377319 
	C279.244659,660.746948 281.139984,666.046265 283.317657,671.092834 
	C284.007538,672.691528 283.948395,674.811890 286.051880,675.429810 
	C287.664673,675.397766 288.291016,674.230225 288.374634,673.129578 
	C288.833069,667.093628 293.986633,663.005615 294.803833,657.030701 
	C295.209747,654.062927 298.578217,653.457153 301.070862,652.756042 
	C312.120148,649.648132 323.291962,646.960449 334.285919,643.674011 
	C361.552643,635.523193 388.984528,627.856628 415.399231,617.092651 
	C420.120819,615.168579 425.159821,615.120972 430.156311,614.996460 
	C435.655243,614.859436 440.774872,613.886047 444.321503,609.094238 
	C446.874847,605.644531 451.412018,605.646912 455.619904,602.689819 
	C448.944458,599.635254 442.580536,598.269531 436.168823,597.226990 
	C423.500336,595.167053 411.146179,591.717285 398.649445,588.906494 
	C395.747070,588.253662 393.480103,586.666870 395.203949,582.749878 
	C396.485321,579.838257 396.272125,576.505432 396.029816,573.362549 
	C395.691528,568.974243 397.513214,565.238159 399.050659,561.378906 
	C400.342346,558.136475 403.045074,559.200806 405.025635,559.864868 
	C413.897858,562.839539 423.061523,564.530151 432.180328,566.412292 
	C447.827484,569.641907 460.387817,566.136597 470.896118,552.653809 
	C478.871277,542.421204 484.203918,532.012634 486.221497,519.288330 
	C488.261841,506.420410 495.046936,495.333435 501.583405,484.263367 
	C502.854919,482.109924 505.094391,479.991211 503.404663,477.130981 
	C501.806366,476.048248 500.411835,477.803741 498.856598,477.106720 
	C497.687042,475.380402 499.147797,474.331268 500.137695,473.399811 
	C505.895386,467.982086 512.304382,463.608032 519.936584,461.171875 
	C522.128113,460.472412 523.854553,460.597992 525.148071,462.621643 
	C526.938416,465.422607 529.264099,465.821228 532.457642,465.062103 
	C541.217834,462.979675 550.061035,461.235901 559.079712,463.732117 
	C578.107178,468.998627 596.385986,488.287109 596.023926,512.858521 
	C595.996948,514.688416 595.935913,516.549133 596.215393,518.344971 
	C596.626831,520.988281 598.409485,521.562500 600.956787,521.397827 
	C613.268127,520.601440 624.581299,515.604919 636.479187,513.036011 
	C650.296753,510.052704 663.721741,505.456360 677.061829,500.699982 
	C682.102905,498.902649 684.943909,496.229523 685.622437,490.482117 
	C686.330322,484.485260 686.753540,478.760101 685.779297,472.691101 
	C684.000244,461.607941 688.306213,452.679138 695.195496,443.666656 
	C700.564697,436.642578 705.779541,428.965240 709.614258,420.712067 
	C711.345886,416.985138 714.810059,413.451294 709.999573,409.185425 
	C708.295776,407.674438 710.515137,405.866089 711.862000,404.703735 
	C716.177307,400.979340 720.935974,397.825043 726.192993,395.690430 
	C735.133118,392.060333 744.156250,388.615906 753.809631,387.203674 
	C762.140747,385.984924 763.782104,387.590576 762.212830,395.713287 
	C772.066345,401.514648 782.753662,396.204590 793.546753,398.824524 
	C793.960571,389.037506 794.225342,379.966583 793.062683,370.907959 
	C792.668213,367.833771 790.305542,367.975555 788.070190,368.564331 
	C780.826294,370.472351 773.334167,371.784241 766.420837,374.538635 
	C741.763062,384.362915 716.076050,390.788666 690.672546,398.136475 
	C659.480225,407.158600 628.635437,417.272400 597.812256,427.437805 
	C563.833618,438.643951 530.064758,450.484863 496.128204,461.820801 
	C488.069611,464.512634 479.978668,467.025513 472.210876,470.511932 
	C469.212860,471.857513 468.310455,473.211060 469.876160,476.564423 
	C474.540100,486.553680 475.587860,496.973267 472.537140,507.723328 
	C471.815521,510.266083 471.506104,512.954712 471.265442,515.599731 
	C470.529144,523.690979 467.187988,526.022339 458.919281,524.112854 
	C458.319122,523.974243 457.595184,524.092102 456.992249,524.286987 
	C447.024841,527.509216 437.674866,526.424438 428.984711,520.405823 
	C428.489410,520.062805 427.767212,520.047424 426.827850,519.791748 
	C425.547577,524.403259 426.568359,529.121399 424.667267,533.529663 
	C420.318634,543.613281 412.531464,548.496704 402.006409,545.779724 
	C375.235718,538.869202 348.084015,533.650635 321.229980,527.126099 
	C316.715118,526.029236 312.044098,525.591736 307.470856,524.715820 
	C293.438202,522.028381 283.812988,511.919891 281.764862,497.816162 
	C281.740936,497.651459 281.738312,497.483673 281.715546,497.318756 
	C280.672394,489.761902 280.672272,489.761932 272.705872,489.318298 
M671.908325,349.211060 
	C670.730835,361.447021 671.706482,373.678162 671.054810,386.778015 
	C676.710144,385.094666 681.250000,383.619080 685.860046,382.411011 
	C689.470520,381.464935 690.890869,379.477966 690.969116,375.645355 
	C691.217102,363.491913 691.264709,351.331940 691.448364,339.181152 
	C691.903870,309.032745 691.614807,278.873322 691.686096,248.718475 
	C691.693665,245.513306 691.266602,242.402512 690.459167,239.342407 
	C688.602905,232.306671 686.605347,230.871460 679.301880,230.277161 
	C669.864441,229.509201 660.406677,228.796616 651.032166,227.515198 
	C644.254150,226.588730 642.638489,224.252289 642.599670,217.451706 
	C642.552063,209.122070 642.553467,200.791016 642.657349,192.462128 
	C642.703552,188.760803 641.354980,186.619171 637.500732,185.806030 
	C627.907715,183.782104 618.412537,181.289276 608.809265,179.320206 
	C574.274231,172.239151 539.687561,165.408539 505.167969,158.253937 
	C488.534607,154.806458 473.322662,166.847000 473.317688,183.968597 
	C473.307831,218.109695 473.334656,252.250778 473.352692,286.391876 
	C473.357117,294.802948 473.319275,295.052887 481.769623,296.714111 
	C509.350403,302.136200 536.922180,307.627319 564.587708,312.588623 
	C596.850891,318.374359 628.820435,325.491821 660.722290,332.933563 
	C672.293701,335.632843 672.414062,333.736603 671.908325,349.211060 
M489.427124,445.783813 
	C495.445557,443.432404 501.746399,441.612610 507.414520,438.601715 
	C515.381470,434.369598 519.464966,424.941406 528.591370,421.987732 
	C528.759827,421.933228 528.779541,421.418976 528.913635,420.967590 
	C526.010803,419.107208 522.564880,419.480560 519.400757,418.756683 
	C475.661835,408.750153 431.849945,399.051056 388.206177,388.646484 
	C373.663879,385.179657 360.022797,384.971680 345.848633,390.518341 
	C323.391327,399.306427 299.915741,405.252502 277.366943,413.861755 
	C275.178833,414.697174 272.546234,414.840942 270.798065,417.009705 
	C272.360413,418.523651 274.043396,418.583710 275.659912,418.858063 
	C304.209351,423.703888 332.225067,431.078888 360.582184,436.867096 
	C387.620026,442.385956 414.315613,449.582672 441.157745,456.058044 
	C445.754456,457.166931 450.394287,457.402466 455.035522,456.617523 
	C466.735382,454.638794 477.847778,450.738251 489.427124,445.783813 
M397.720123,352.222229 
	C391.312317,358.098053 384.904510,363.973846 378.255005,370.071289 
	C379.407898,370.776794 379.932312,371.348572 380.516846,371.418640 
	C394.452911,373.088593 407.564697,378.489685 421.421112,380.448669 
	C425.344604,381.003357 429.342896,382.427948 433.296356,381.352509 
	C442.766418,378.776276 452.391113,376.865234 461.830566,374.117279 
	C488.349792,366.397186 514.967773,359.014862 541.569153,351.579285 
	C555.030273,347.816681 568.543884,344.242035 582.023254,340.543915 
	C584.266174,339.928558 586.473328,339.166565 588.662170,338.375885 
	C590.070984,337.866943 591.653809,337.279724 591.553101,335.406525 
	C591.463501,333.741211 589.971741,333.467987 588.670898,333.128021 
	C587.865723,332.917572 587.073242,332.631256 586.255615,332.499603 
	C570.171936,329.909393 554.081116,327.362579 538.000183,324.755005 
	C511.876862,320.518982 485.943329,315.289978 460.338959,308.627869 
	C452.408783,306.564514 445.947784,308.061829 439.835938,312.882050 
	C437.747620,314.529053 435.718231,316.263336 433.772217,318.076111 
	C421.833466,329.197601 410.729645,341.200348 397.720123,352.222229 
M798.206055,650.769775 
	C800.666016,649.226562 803.125977,647.683289 806.088562,645.824768 
	C805.729614,650.332397 803.411133,653.158508 801.031982,655.819153 
	C792.343018,665.535950 781.498779,671.099487 768.484558,672.465393 
	C766.309082,672.693665 762.919373,672.217346 762.614746,675.061890 
	C761.873596,681.983093 759.234253,688.449646 757.767822,695.534546 
	C773.384521,696.692383 787.746582,694.737915 799.976501,685.282898 
	C820.599487,669.339294 831.431946,648.185364 831.619934,621.989807 
	C831.809998,595.499329 831.669128,569.006348 831.632385,542.514526 
	C831.630188,540.924683 832.163696,539.163818 830.353577,537.345581 
	C825.623657,538.976135 820.763855,541.232849 815.656677,542.260254 
	C809.703003,543.457825 808.948120,546.930054 809.400085,551.984619 
	C810.946472,569.277588 809.807983,586.618896 810.086853,603.936951 
	C810.211914,611.705811 807.255371,618.262329 801.503235,623.427734 
	C796.370972,628.036499 790.407166,629.404724 783.919250,626.689819 
	C777.922913,624.180481 776.532043,618.905212 776.672424,613.100525 
	C776.937805,602.123108 775.377319,591.190186 776.470520,580.161743 
	C777.105835,573.752258 776.184509,567.197266 776.117737,560.706116 
	C776.073547,556.410400 774.125916,555.551147 770.354431,556.866699 
	C766.272034,558.290771 762.140869,559.603149 757.967468,560.728699 
	C755.242615,561.463501 754.259216,562.980896 754.275085,565.744873 
	C754.385986,585.071655 754.091614,604.406128 754.547363,623.723572 
	C754.851013,636.593567 759.044434,647.581604 772.468933,652.712463 
	C781.143494,656.027771 789.419373,655.319580 798.206055,650.769775 
M459.529205,741.976379 
	C472.115997,753.571045 488.632568,754.942383 504.252747,745.689636 
	C530.756470,729.990173 545.579895,693.498535 537.541992,663.740051 
	C533.274536,647.940735 521.081604,637.388367 506.667145,638.067993 
	C491.406677,638.787476 478.301727,645.067139 467.823944,656.189941 
	C452.953461,671.975952 445.570526,690.566528 447.277618,712.548096 
	C448.131348,723.541626 451.312134,733.373657 459.529205,741.976379 
M333.049530,692.494568 
	C318.413239,691.652283 307.391754,700.333069 295.174103,707.502563 
	C294.962677,702.541504 292.094818,703.027100 289.205048,703.660095 
	C286.440948,704.265503 283.703583,704.994812 280.935120,705.577698 
	C277.985504,706.198792 276.934021,707.910706 277.019806,710.919983 
	C277.983612,744.726318 275.689270,778.512939 276.372711,812.318237 
	C276.413971,814.359192 275.558685,816.680298 277.779358,818.602783 
	C282.927795,817.129028 288.120728,815.305298 293.463837,814.222534 
	C297.545624,813.395325 298.783997,811.549194 298.742889,807.452271 
	C298.549072,788.131104 298.923584,768.802246 298.581787,749.485229 
	C298.356628,736.759827 304.593781,728.355774 315.000153,722.480530 
	C326.915253,715.753540 337.046082,724.016113 336.578156,735.104919 
	C335.750122,754.726257 336.408325,774.408203 336.297821,794.063904 
	C336.276581,797.846436 337.194946,799.122314 341.235748,798.125977 
	C345.775574,797.006470 350.178986,795.553284 354.625671,794.172302 
	C356.907898,793.463623 357.678101,792.263855 357.932922,789.936096 
	C358.696594,782.960693 358.792725,775.977966 358.613983,768.988159 
	C358.261108,755.188477 357.953064,741.416138 358.378998,727.585815 
	C358.914948,710.184265 352.318787,694.860107 333.049530,692.494568 
M724.558167,705.007019 
	C723.346313,691.715942 723.495667,678.405945 724.104431,665.097412 
	C725.093628,643.475037 724.924072,621.850037 724.138977,600.232849 
	C724.021851,597.008972 724.620483,595.158569 727.847961,594.360901 
	C732.687195,593.164917 737.455322,591.665588 742.317749,590.583374 
	C746.525146,589.646912 748.117676,587.307190 747.613708,583.085876 
	C747.161011,579.293823 746.925537,575.466125 746.796570,571.647278 
	C746.560974,564.667114 746.556946,564.686340 740.078735,566.636902 
	C735.248840,568.091125 730.514099,570.136475 725.384277,570.222046 
	C723.117859,558.752625 729.256348,550.280518 741.342773,547.544250 
	C748.644653,545.891174 748.644592,545.891113 748.656860,538.826111 
	C748.684082,523.174988 748.586365,522.858337 733.334534,527.569214 
	C716.085144,532.897095 704.546143,544.073425 701.673035,562.443298 
	C700.497803,569.957214 700.880859,577.702148 700.253052,585.317078 
	C699.155945,598.626526 703.195557,611.582275 702.289978,624.967102 
	C700.378479,653.218262 701.433838,681.546570 701.397461,709.843872 
	C701.394226,712.391724 700.786987,715.196228 703.377808,717.607239 
	C709.345398,714.904602 715.388977,712.210510 721.388000,709.420593 
	C722.908508,708.713501 724.243774,707.664062 724.558167,705.007019 
M368.548309,679.186218 
	C365.352051,680.108215 362.201447,681.266418 358.948517,681.895508 
	C354.366699,682.781494 353.820770,684.722229 355.827545,688.816833 
	C362.269379,701.960693 369.026184,714.963928 374.027924,728.780762 
	C379.745941,744.576111 385.733917,760.273560 391.549316,776.033997 
	C392.801208,779.426819 394.508667,780.755615 398.277374,779.125305 
	C401.763611,777.617249 405.553619,776.757629 409.267792,775.849365 
	C411.662445,775.263733 412.992004,773.936829 413.656189,771.636414 
	C418.824493,753.736389 425.316803,736.260803 430.839447,718.481506 
	C437.059998,698.455505 442.990967,678.353088 451.155701,658.996460 
	C451.825104,657.409485 453.114502,655.805908 452.128326,653.840454 
	C450.204193,652.513428 448.603546,653.885742 446.954468,654.435120 
	C442.379364,655.959167 437.929138,658.085266 433.240204,658.971252 
	C429.210693,659.732666 427.437500,661.516602 426.077179,665.288269 
	C418.620270,685.963501 413.517487,707.358765 406.522644,728.166931 
	C405.783600,730.365417 405.633301,733.063721 403.063293,734.230896 
	C401.077850,732.744934 400.692200,730.689941 399.928101,728.891724 
	C393.555206,713.893738 388.179932,698.473022 380.888062,683.865112 
	C377.150726,676.377869 377.111267,676.397583 368.548309,679.186218 
M580.809998,656.256348 
	C579.733215,663.079895 580.020813,669.941589 581.412964,676.614014 
	C585.200195,694.766541 596.016785,708.476501 617.403137,708.816406 
	C631.781494,709.044922 643.819458,703.062683 655.636292,696.033264 
	C657.718872,694.794250 657.731323,692.821533 657.623718,690.774536 
	C657.182007,682.376038 651.950134,677.309692 645.401306,673.137756 
	C643.770996,672.099182 642.641174,673.112976 641.326599,673.859436 
	C636.976746,676.329651 632.498718,678.549988 627.622375,679.798035 
	C615.646545,682.863220 604.858276,676.783264 602.216797,665.239685 
	C597.568298,644.925110 619.143860,619.346069 641.059814,624.756348 
	C642.827698,625.192749 644.598328,626.017578 646.040161,624.072388 
	C650.001648,618.728027 654.211060,613.552429 656.629150,607.224731 
	C657.818604,604.112305 656.984863,602.053223 653.827332,601.012817 
	C645.845642,598.382507 637.849243,596.755981 629.389648,599.040222 
	C603.423523,606.051575 584.537231,627.931824 580.809998,656.256348 
M792.384155,456.949249 
	C792.472351,454.622467 792.800842,452.275970 792.611633,449.971954 
	C790.756226,427.377136 771.545959,408.521912 745.775574,415.612061 
	C727.382080,420.672638 710.535461,441.101074 708.229980,460.321716 
	C707.772888,464.132355 706.515259,468.467377 709.389587,471.324371 
	C714.117554,476.023895 715.971252,481.939545 718.421204,487.743866 
	C726.151672,506.058990 743.787354,514.037659 760.017090,506.611053 
	C765.791931,503.968506 771.084167,500.526215 775.590027,495.933929 
	C785.992371,485.332031 790.728882,472.299927 792.384155,456.949249 
M526.002686,485.448181 
	C513.587036,493.225586 506.834076,505.071869 502.582214,518.563782 
	C498.503082,531.507507 502.589111,543.403992 507.830963,555.102234 
	C516.224060,573.832886 533.966797,580.111145 552.474121,571.029175 
	C561.401306,566.648438 567.517090,559.501404 572.372681,551.244446 
	C581.857788,535.115051 583.694641,518.201477 576.990723,500.450012 
	C571.074219,484.783783 547.792480,473.001923 526.002686,485.448181 
M263.870575,754.473633 
	C263.814789,742.146729 263.812988,729.819153 263.677826,717.493164 
	C263.620453,712.262146 262.269501,711.300964 257.228149,712.720276 
	C253.383423,713.802734 249.636383,715.242188 245.775421,716.253845 
	C242.434372,717.129333 241.254456,719.098572 241.379745,722.435181 
	C241.548416,726.926453 241.444000,731.429810 241.388794,735.927185 
	C241.059738,762.730835 242.258850,789.533203 241.421463,816.339905 
	C241.283951,820.742798 240.801376,825.227478 241.960175,830.197205 
	C247.792786,828.507080 253.274384,826.558655 258.917969,825.397522 
	C263.393768,824.476746 264.805328,822.378845 264.733948,817.900696 
	C264.402344,797.088867 265.160278,776.262268 263.870575,754.473633 
M548.107971,688.338196 
	C547.175171,702.700806 546.664001,717.051636 548.564026,732.144287 
	C554.322754,730.252502 559.114075,728.420593 564.047852,727.136292 
	C568.272034,726.036804 569.857300,723.882385 569.829285,719.413208 
	C569.631531,687.772278 569.682312,656.129883 569.624695,624.487976 
	C569.621155,622.537109 569.900024,620.436890 567.896790,618.775879 
	C563.024719,619.360107 558.773254,622.441833 553.897949,623.292786 
	C549.345459,624.087402 548.219971,626.561707 548.253357,630.918701 
	C548.397644,649.735413 548.217041,668.554688 548.107971,688.338196 
M382.081421,643.634460 
	C378.789948,644.811218 375.558624,646.207214 372.197205,647.129028 
	C350.514984,653.074463 329.927521,662.328552 308.232452,668.238953 
	C305.708740,668.926453 302.328339,670.244446 302.983856,673.266235 
	C303.640076,676.291504 307.336853,676.298340 310.124573,676.642334 
	C310.763000,676.721069 311.468292,676.583801 312.094299,676.389587 
	C322.899048,673.036194 334.092072,671.182373 344.787506,667.293762 
	C359.795135,661.837280 374.771820,656.180298 390.484650,652.898254 
	C397.662292,651.399048 404.714844,649.488953 411.518646,646.636230 
	C427.524811,639.925293 444.072052,634.939758 461.134094,631.721130 
	C465.526947,630.892456 469.473907,629.333191 472.210846,625.625366 
	C473.235077,624.237732 475.402069,623.004700 474.260651,620.951416 
	C472.963196,618.617310 470.575226,619.211670 468.421448,619.679199 
	C461.370911,621.209900 454.344208,621.926636 447.145386,620.323486 
	C443.022827,619.405396 439.067200,620.140503 435.129608,622.268738 
	C430.012909,625.034058 426.090668,629.479736 420.423401,631.513306 
	C408.036011,635.958191 395.265869,639.135376 382.081421,643.634460 
M682.492004,661.894165 
	C688.345276,647.656250 690.048462,632.846924 689.832642,617.501221 
	C689.687805,607.200928 686.003784,598.390564 681.720642,589.540527 
	C680.138672,586.271606 677.609436,585.693970 674.218567,586.783630 
	C668.901062,588.492371 668.425171,593.067017 668.390869,597.236511 
	C668.148804,626.707825 668.177124,656.181396 668.164917,685.654297 
	C668.164429,686.830017 667.667114,688.427490 669.578125,688.920410 
	C671.393433,687.874268 671.216003,686.034119 671.027405,684.485229 
	C670.419495,679.491516 672.611511,675.378235 674.934692,671.331421 
	C676.832886,668.025085 680.935425,666.476135 682.492004,661.894165 
M284.728424,458.142914 
	C285.428619,449.592682 281.593506,443.355621 274.614105,438.915924 
	C266.904816,434.011902 257.461395,437.399445 254.316223,446.028351 
	C251.790390,452.958038 254.464066,461.591217 260.855530,467.143188 
	C270.720917,475.712982 282.122589,471.809021 284.728424,458.142914 
M349.167847,457.925598 
	C349.639954,474.921661 348.732788,491.894867 348.367737,508.877716 
	C348.252899,514.219543 351.331329,518.746826 354.736359,518.882019 
	C358.482422,519.030762 360.773956,515.323914 360.763031,509.020294 
	C360.735626,493.191498 360.703461,477.362610 360.615326,461.534119 
	C360.605255,459.724731 360.451019,457.855255 359.969971,456.122955 
	C359.147888,453.162476 357.316528,451.028809 353.936981,451.187195 
	C350.294922,451.357910 349.303772,453.890137 349.167847,457.925598 
M433.860748,475.302307 
	C429.343018,476.695526 426.688538,479.856812 425.212128,484.231323 
	C422.366791,492.661926 427.893555,503.561554 436.767334,506.907684 
	C443.289307,509.366943 447.430603,508.215607 451.579926,502.789703 
	C455.732086,497.360046 455.617706,490.329376 451.260773,483.180908 
	C447.293121,476.671112 441.275146,473.749512 433.860748,475.302307 
M383.642670,483.500275 
	C383.638733,477.508759 383.567963,471.516266 383.658783,465.526184 
	C383.704956,462.479889 382.679169,459.981567 380.471283,457.973450 
	C378.743195,456.401733 376.904297,454.599548 374.329102,455.930298 
	C372.028076,457.119354 371.305145,459.374786 371.429108,461.862518 
	C371.594482,465.179382 372.011230,468.492004 372.017731,471.807037 
	C372.046204,486.284607 371.922028,500.762512 371.945190,515.240112 
	C371.954498,521.065369 374.122925,524.000427 378.070984,523.666504 
	C383.167725,523.235413 383.844269,519.737122 383.773865,515.455444 
	C383.604279,505.139069 383.670746,494.818878 383.642670,483.500275 
M399.798981,528.674438 
	C404.712463,528.842468 406.635620,526.235718 406.626373,521.573242 
	C406.592773,504.616577 406.681122,487.660034 405.970795,470.710815 
	C405.842499,467.649628 404.640869,465.273926 402.408478,463.330017 
	C400.750488,461.886353 398.998871,460.438446 396.618622,461.581787 
	C394.494476,462.602112 394.290924,464.631622 394.316467,466.704803 
	C394.537750,484.658875 394.719086,502.613617 395.003784,520.566711 
	C395.054779,523.781616 395.693878,526.904541 399.798981,528.674438 
M336.737122,482.499542 
	C336.747650,472.339203 336.826660,462.178223 336.733185,452.018860 
	C336.698486,448.246826 334.889984,445.478760 330.823547,445.327301 
	C326.632294,445.171234 325.429962,448.306549 325.401978,451.681549 
	C325.251434,469.835571 325.174988,487.991516 325.291565,506.145416 
	C325.315033,509.798035 326.832458,513.565613 331.151276,513.522827 
	C335.547333,513.479370 336.590912,509.775726 336.628876,505.985626 
	C336.703918,498.490631 336.704071,490.994934 336.737122,482.499542 
M301.263336,491.476318 
	C301.278778,494.475983 301.238037,497.477234 301.322540,500.474945 
	C301.458801,505.308990 304.482178,509.121643 308.099091,508.743622 
	C313.042084,508.226959 312.758484,504.324188 312.771393,500.798218 
	C312.833618,483.800079 312.874969,466.801758 312.888824,449.803528 
	C312.893616,443.947296 310.187134,439.895386 306.333527,440.501404 
	C301.184540,441.311218 301.398376,445.637848 301.376129,449.488251 
	C301.297150,463.153290 301.294434,476.818726 301.263336,491.476318 
M630.546204,354.951080 
	C636.368469,354.711578 639.046387,351.388641 639.619690,345.910675 
	C634.080261,342.706238 630.458984,345.135925 625.889282,348.631256 
	C602.510254,366.513611 583.460022,388.830597 562.588379,409.272614 
	C561.250366,410.583130 559.482300,411.872559 560.102600,414.899750 
	C564.481079,414.027679 567.316101,410.870026 570.145630,408.205261 
	C585.635010,393.617859 600.916077,378.809479 616.303955,364.113800 
	C620.262695,360.333099 624.449890,356.835938 630.546204,354.951080 
M262.336487,695.669312 
	C264.723999,692.003052 264.941986,687.898804 264.903137,683.690247 
	C264.861115,679.139404 263.185974,675.539429 259.059662,673.482788 
	C254.705826,671.312683 250.528015,672.508240 246.878479,675.173035 
	C241.424500,679.155334 239.630844,684.858521 240.114182,691.414001 
	C240.566925,697.554932 245.129333,701.798279 251.253876,701.849121 
	C255.815277,701.887024 259.104980,699.576965 262.336487,695.669312 
M564.286865,607.869812 
	C568.339050,603.510010 570.273315,598.399353 569.895996,592.414001 
	C569.474915,585.733154 565.640198,582.123291 558.941101,582.210388 
	C551.831909,582.302856 545.909180,590.530701 546.345520,599.691833 
	C546.560608,604.207397 548.503601,607.694519 552.623596,609.677429 
	C556.538391,611.561584 560.340454,611.371277 564.286865,607.869812 
M671.322144,548.783325 
	C668.152405,552.189270 666.445190,556.288879 665.686279,560.815735 
	C664.834839,565.894653 667.661499,571.466187 671.971069,573.308533 
	C676.136963,575.089539 681.706909,573.399231 684.822693,569.183167 
	C686.197632,567.322693 687.299561,565.233337 688.330872,563.151489 
	C690.904724,557.955383 689.466675,551.418884 685.053650,547.737610 
	C681.170471,544.498413 677.356323,544.661682 671.322144,548.783325 
M434.347321,282.862396 
	C433.372711,284.812073 432.111084,286.943359 433.896698,288.861847 
	C435.768433,290.872864 437.928925,289.257935 439.898315,288.576691 
	C441.779938,287.925781 443.663635,287.242493 445.457123,286.386353 
	C447.169983,285.568665 448.883575,284.142822 448.583374,282.239502 
	C447.579498,275.874481 446.344360,269.533600 444.856995,263.264343 
	C444.389374,261.293396 442.516998,260.039825 440.222137,260.175476 
	C437.829346,260.316925 436.860046,262.067078 436.167450,264.019806 
	C434.857635,267.712891 434.679382,271.533844 435.397583,275.331940 
	C435.852264,277.736359 435.654327,279.941772 434.347321,282.862396 
M316.665070,558.968323 
	C323.742218,560.777405 330.252228,559.349487 336.471375,555.359070 
	C324.646973,553.871460 313.268280,550.688660 301.597107,548.314697 
	C304.825073,554.036804 309.972382,556.919434 316.665070,558.968323 
M658.324829,198.969391 
	C656.375183,200.950089 655.309875,208.022156 656.697937,209.746918 
	C657.413452,210.636047 658.450867,210.923019 659.367859,210.495026 
	C662.337585,209.108871 664.797241,210.336548 667.337341,211.679321 
	C668.601624,212.347656 670.056885,213.229248 671.597412,210.872925 
	C667.438293,206.983704 663.200562,203.020935 658.324829,198.969391 
z"/>
<path fill="#000000" opacity="1.000000" stroke="none" 
	d="
M576.891479,750.826416 
	C579.451477,749.915100 581.620972,749.066406 583.831177,748.341614 
	C589.030701,746.636353 592.875671,743.556152 594.127930,736.870605 
	C599.124878,741.223816 604.371338,741.740906 609.765625,741.874817 
	C611.233459,741.911255 612.472290,742.998230 613.488770,744.189575 
	C617.087341,748.407166 616.665466,750.779358 611.493164,752.741821 
	C600.157288,757.042908 588.799011,761.297485 577.348022,765.277893 
	C569.036438,768.166992 560.587646,770.675964 552.137390,773.139343 
	C550.426392,773.638123 548.017944,774.776733 546.741272,772.369080 
	C545.601135,770.218872 547.031128,768.314087 548.623779,767.193115 
	C551.381653,765.251831 550.128601,763.308167 548.679871,760.981812 
	C557.761353,756.382629 567.539307,754.724854 576.891479,750.826416 
z"/>
<path fill="#000000" opacity="1.000000" stroke="none" 
	d="
M323.178284,600.919250 
	C328.176910,599.933899 332.784882,598.752502 336.890869,602.304626 
	C341.172516,606.008667 340.889801,608.801636 335.741425,611.208618 
	C325.725342,615.891296 314.910797,617.992249 304.304230,620.783447 
	C295.967804,622.977112 287.835449,625.977356 279.170227,626.808960 
	C276.191956,627.094788 272.611816,628.023376 271.324158,624.509338 
	C269.900726,620.624939 272.792236,618.426575 276.095551,616.977844 
	C291.206238,610.350647 306.903351,605.437500 323.178284,600.919250 
z"/>
<path fill="#000000" opacity="1.000000" stroke="none" 
	d="
M694.902588,753.250122 
	C691.965942,753.930115 689.390381,754.675964 686.774902,754.862793 
	C684.416809,755.031311 682.573547,753.658875 681.933655,751.329468 
	C681.228516,748.762573 683.286438,747.813416 685.100464,746.995605 
	C686.908691,746.180420 688.841064,745.645020 690.698669,744.933899 
	C693.714600,743.779358 696.462769,744.205261 698.074524,747.066040 
	C699.743286,750.028076 697.195129,751.528931 694.902588,753.250122 
z"/>
<path fill="#000000" opacity="1.000000" stroke="none" 
	d="
M543.317139,217.006500 
	C543.322815,223.664200 543.271362,229.823929 543.354431,235.981842 
	C543.410278,240.120880 541.527771,241.930923 537.471252,241.047333 
	C523.997559,238.112473 510.506592,235.243256 497.093414,232.049988 
	C490.136292,230.393692 489.172668,229.350967 489.853546,222.498962 
	C491.111053,209.844254 489.287018,197.253784 489.736450,184.631531 
	C490.004242,177.110870 490.936554,176.157791 498.268951,177.637253 
	C511.626801,180.332474 524.951599,183.191833 538.314392,185.861633 
	C542.702148,186.738281 544.505432,189.229736 544.250793,193.585159 
	C543.804382,201.219650 542.942627,208.839340 543.317139,217.006500 
M518.489136,209.112549 
	C516.987671,210.458511 515.387878,211.644974 513.379883,212.123016 
	C511.575592,212.552567 510.871826,213.701309 511.323944,215.448608 
	C511.768188,217.165619 513.114807,217.749252 514.754456,217.751938 
	C517.148315,217.755859 518.627136,216.046860 520.328735,214.737579 
	C523.674561,212.163239 526.021851,208.349747 530.074097,206.484268 
	C532.105164,208.586716 530.804138,211.948196 533.600830,213.805176 
	C534.398987,210.087570 533.584106,206.453033 535.095764,203.245529 
	C536.039917,201.242233 536.557373,199.529724 534.103394,198.201492 
	C531.673035,196.885971 529.926758,197.896851 528.461548,199.732346 
	C525.735352,203.147354 522.277710,205.768188 518.489136,209.112549 
M505.155365,205.507141 
	C505.270660,204.204987 507.099609,202.905396 504.603821,201.158722 
	C501.193481,204.532059 502.167358,209.370163 500.688812,213.261795 
	C500.253784,214.406830 500.332123,215.612701 501.632629,216.258408 
	C502.566406,216.722061 503.575714,216.696182 504.493011,216.169083 
	C505.712738,215.468170 505.867737,214.302582 505.450714,213.137894 
	C504.638855,210.870377 504.707703,208.581161 505.155365,205.507141 
z"/>
<path fill="#000000" opacity="1.000000" stroke="none" 
	d="
M556.104858,224.410782 
	C555.909790,216.424744 558.292542,214.598801 566.329834,216.149582 
	C597.680786,222.198761 629.045410,228.182739 659.772888,237.032303 
	C663.605713,238.136154 667.576416,238.756531 671.421753,239.822571 
	C676.221191,241.153107 677.425476,244.602142 675.948792,251.141495 
	C674.866272,255.935272 671.826843,255.275681 668.274536,254.531448 
	C634.239502,247.400848 600.515320,238.940887 566.700684,230.868988 
	C562.637634,229.899124 557.725281,230.261993 556.104858,224.410782 
z"/>
<path fill="#000000" opacity="1.000000" stroke="none" 
	d="
M619.931641,273.266785 
	C601.246155,268.921814 582.975037,264.639313 564.709473,260.333099 
	C563.257996,259.990936 561.767517,259.650604 560.429626,259.022858 
	C557.013306,257.419891 554.878601,252.287949 556.126526,248.814743 
	C557.644226,244.590714 560.730347,244.300095 564.624390,245.201920 
	C599.887573,253.368576 635.167480,261.463501 670.455505,269.522491 
	C674.843140,270.524475 677.803650,272.365448 677.333374,277.538727 
	C676.776428,283.664307 675.076965,284.957428 669.021301,283.881592 
	C652.661804,280.975159 636.561462,276.890198 619.931641,273.266785 
z"/>
<path fill="#000000" opacity="1.000000" stroke="none" 
	d="
M675.164185,302.942505 
	C678.051758,306.192749 677.646057,309.364990 675.885498,312.488770 
	C673.930481,315.957458 670.769104,314.853516 667.862000,314.294281 
	C636.983215,308.354034 606.457092,300.812500 575.773926,293.983490 
	C571.553589,293.044220 567.351685,292.020081 563.123657,291.117950 
	C559.705444,290.388611 557.599854,288.310608 556.351685,285.129456 
	C555.355957,282.591583 555.519897,280.342865 557.209717,278.098206 
	C558.989929,275.733551 561.213623,275.416107 563.863037,276.027954 
	C579.097778,279.546173 594.334167,283.057892 609.577942,286.536652 
	C627.906494,290.719360 646.253113,294.823853 664.567627,299.066833 
	C668.108582,299.887207 671.765503,300.544342 675.164185,302.942505 
z"/>
<path fill="#000000" opacity="1.000000" stroke="none" 
	d="
M529.014160,291.961395 
	C519.378784,301.303101 507.554321,300.281616 500.244324,289.469513 
	C495.208344,282.020844 491.756592,273.886597 493.754333,264.606323 
	C496.022491,254.069992 507.722565,248.080170 517.917297,251.769058 
	C532.056641,256.885284 542.456116,274.689758 529.014160,291.961395 
M514.567871,263.822723 
	C511.717987,263.892151 510.803345,267.284363 507.745667,267.479919 
	C504.158173,267.709351 503.911102,270.658905 504.630188,273.481293 
	C505.375488,276.406464 507.527771,278.212280 510.167877,279.494965 
	C513.337158,281.034790 515.785034,283.216248 516.532410,288.206818 
	C516.779297,283.891846 517.654907,281.115265 520.405273,279.737976 
	C524.986938,277.443573 523.704163,274.382355 522.027283,271.046967 
	C520.449097,267.907959 516.808350,267.023346 514.567871,263.822723 
z"/>
<path fill="#000000" opacity="1.000000" stroke="none" 
	d="
M504.109802,715.149170 
	C500.027466,718.355896 496.269287,721.490906 491.319153,722.316650 
	C479.913025,724.219360 470.410217,716.875549 468.783875,705.020325 
	C466.716156,689.947937 476.238922,673.046082 490.310303,667.320190 
	C497.102814,664.556213 504.139648,664.214355 510.251556,668.891846 
	C516.561829,673.721008 518.538574,680.430115 517.674805,688.379944 
	C516.523132,698.979187 512.260986,707.799316 504.109802,715.149170 
z"/>
<path fill="#000000" opacity="1.000000" stroke="none" 
	d="
M732.248657,453.488281 
	C735.151733,445.126007 739.905273,438.623322 747.181396,434.237976 
	C761.049744,425.879486 775.919617,432.184906 780.688782,447.680450 
	C784.952759,461.534363 775.014099,485.391602 763.229675,491.916107 
	C747.338928,500.714142 735.223389,491.284119 731.028931,478.367218 
	C728.384033,470.222168 729.180054,461.914337 732.248657,453.488281 
M747.186035,455.823456 
	C745.801819,457.058624 744.761108,458.549683 744.093994,460.266968 
	C742.708191,463.834137 742.254456,467.393494 745.070496,470.514313 
	C747.162964,472.833191 749.741943,474.535309 752.979126,473.221283 
	C756.801453,471.669739 760.881409,470.124268 761.554871,465.186249 
	C762.067749,461.425781 762.505249,457.699768 756.764282,457.717621 
	C755.428223,457.721771 754.016541,456.661804 752.768066,455.885101 
	C751.123962,454.862213 749.556763,454.124451 747.186035,455.823456 
z"/>
<path fill="#000000" opacity="1.000000" stroke="none" 
	d="
M567.952515,534.675537 
	C564.960327,544.318787 559.682678,551.857056 551.275146,556.774231 
	C537.092834,565.068787 522.030151,558.228271 518.968384,542.009644 
	C515.869690,525.595642 521.641296,512.019592 534.172180,501.629944 
	C546.583557,491.339355 563.736084,497.199097 568.398010,512.660217 
	C570.593994,519.942749 569.960510,527.104675 567.952515,534.675537 
M543.061340,518.663147 
	C536.229675,518.880981 531.485229,523.810059 531.741333,530.423584 
	C531.904297,534.631409 536.511963,539.681030 540.160767,539.650452 
	C544.361267,539.615295 549.869995,533.939087 550.608582,528.885071 
	C551.294861,524.188843 548.906372,520.667053 543.061340,518.663147 
z"/>
</svg>